<?xml version="1.0" encoding="utf-8"?>
<!-- Generator: Adobe Illustrator 24.3.0, SVG Export Plug-In . SVG Version: 6.00 Build 0)  -->
<svg version="1.1" id="Layer_1" xmlns="http://www.w3.org/2000/svg" xmlns:xlink="http://www.w3.org/1999/xlink" x="0px" y="0px"
	 viewBox="0 0 1080 1080" style="enable-background:new 0 0 1080 1080;" xml:space="preserve">
<style type="text/css">
	.st0{fill:#121212;}
</style>
<g>
	<g>
		<g>
			<path class="st0" d="M896.67,862.04l-68.04-153.95l-8.7-19.58h-118.4l-36.77-83.26l118.64-0.14l-4.79-10.12l-8.09-18.35
				L614.8,224.41l-15.43-34.87l-0.41-0.2l-14.61,33.03l-1.22,2.79l-0.34,0.68v0.07l-42.89,96.99l-43.43-98.35l-15.57-35.07
				l-0.27-0.14l-14.61,33.03l-1.16,2.65v0.07l-0.34,0.68v0.07L309.41,576.64l-11.35,25.69v2.92H415.1l-36.84,83.26H259.99
				l-11.96,26.98l-64.78,146.54l-12.69,28.61l1.68,0h147.97l12.64-28.62l64.1-144.91h284.8l64.1,144.91l12.64,28.62h150.95
				l-2.77-6.05L896.67,862.04z M301.52,862.04h-87l64.1-144.91h87L301.52,862.04z M598.48,261.32l139.41,315.31h-85.85L555.6,358.32
				L598.48,261.32z M619.62,576.64H459.08l80.27-181.68L619.62,576.64z M340.74,576.64l139.47-315.45l43.43,98.35v0.07
				l-95.91,217.03H340.74z M409.6,688.51l36.77-83.26h185.97l36.77,83.26H409.6z M778.27,862.04l-64.1-144.91h85.85l64.03,144.91
				H778.27z"/>
			<g>
				<path class="st0" d="M540.03,759.36c36.27,0,65.62,29.41,65.62,65.68c0,36.21-29.36,65.62-65.62,65.62s-65.68-29.41-65.68-65.62
					C474.35,788.77,503.76,759.36,540.03,759.36z M540.03,872.44c26.2,0,47.41-21.27,47.41-47.41c0-26.2-21.21-47.46-47.41-47.46
					c-26.2,0-47.41,21.27-47.41,47.46C492.62,851.18,513.83,872.44,540.03,872.44z"/>
				<circle class="st0" cx="535.63" cy="829.8" r="54.71"/>
			</g>
		</g>
	</g>
</g>
</svg>
